<?xml version="1.0" standalone="no"?>
<svg xmlns:xlink="http://www.w3.org/1999/xlink" id="wave" style="transform:rotate(0deg); transition: 0.3s" viewBox="0 0 1440 120" version="1.1" xmlns="http://www.w3.org/2000/svg"><defs><linearGradient id="sw-gradient-0" x1="0" x2="0" y1="1" y2="0"><stop stop-color="rgba(255, 255, 240, 1)" offset="0%"/><stop stop-color="rgba(255, 255, 240, 1)" offset="100%"/></linearGradient></defs><path style="transform:translate(0, 0px); opacity:1" fill="url(#sw-gradient-0)" d="M0,12L80,26C160,40,320,68,480,74C640,80,800,64,960,48C1120,32,1280,16,1440,16C1600,16,1760,32,1920,40C2080,48,2240,48,2400,58C2560,68,2720,88,2880,84C3040,80,3200,52,3360,36C3520,20,3680,16,3840,30C4000,44,4160,76,4320,76C4480,76,4640,44,4800,30C4960,16,5120,20,5280,34C5440,48,5600,72,5760,84C5920,96,6080,96,6240,80C6400,64,6560,32,6720,20C6880,8,7040,16,7200,20C7360,24,7520,24,7680,34C7840,44,8000,64,8160,70C8320,76,8480,68,8640,70C8800,72,8960,84,9120,92C9280,100,9440,104,9600,106C9760,108,9920,108,10080,90C10240,72,10400,36,10560,28C10720,20,10880,40,11040,42C11200,44,11360,28,11440,20L11520,12L11520,120L11440,120C11360,120,11200,120,11040,120C10880,120,10720,120,10560,120C10400,120,10240,120,10080,120C9920,120,9760,120,9600,120C9440,120,9280,120,9120,120C8960,120,8800,120,8640,120C8480,120,8320,120,8160,120C8000,120,7840,120,7680,120C7520,120,7360,120,7200,120C7040,120,6880,120,6720,120C6560,120,6400,120,6240,120C6080,120,5920,120,5760,120C5600,120,5440,120,5280,120C5120,120,4960,120,4800,120C4640,120,4480,120,4320,120C4160,120,4000,120,3840,120C3680,120,3520,120,3360,120C3200,120,3040,120,2880,120C2720,120,2560,120,2400,120C2240,120,2080,120,1920,120C1760,120,1600,120,1440,120C1280,120,1120,120,960,120C800,120,640,120,480,120C320,120,160,120,80,120L0,120Z"/></svg>