<?xml version="1.0" standalone="no"?>
<svg xmlns:xlink="http://www.w3.org/1999/xlink" id="wave" style="transform:rotate(0deg); transition: 0.3s" viewBox="0 0 1440 160" version="1.1" xmlns="http://www.w3.org/2000/svg"><defs><linearGradient id="sw-gradient-0" x1="0" x2="0" y1="1" y2="0"><stop stop-color="rgba(255, 255, 240, 1)" offset="0%"/><stop stop-color="rgba(255, 255, 240, 1)" offset="100%"/></linearGradient></defs><path style="transform:translate(0, 0px); opacity:1" fill="url(#sw-gradient-0)" d="M0,32L80,34.7C160,37,320,43,480,56C640,69,800,91,960,104C1120,117,1280,123,1440,125.3C1600,128,1760,128,1920,130.7C2080,133,2240,139,2400,136C2560,133,2720,123,2880,109.3C3040,96,3200,80,3360,82.7C3520,85,3680,107,3840,114.7C4000,123,4160,117,4320,98.7C4480,80,4640,48,4800,40C4960,32,5120,48,5280,69.3C5440,91,5600,117,5760,117.3C5920,117,6080,91,6240,74.7C6400,59,6560,53,6720,58.7C6880,64,7040,80,7200,88C7360,96,7520,96,7680,96C7840,96,8000,96,8160,88C8320,80,8480,64,8640,66.7C8800,69,8960,91,9120,98.7C9280,107,9440,101,9600,93.3C9760,85,9920,75,10080,74.7C10240,75,10400,85,10560,80C10720,75,10880,53,11040,53.3C11200,53,11360,75,11440,85.3L11520,96L11520,160L11440,160C11360,160,11200,160,11040,160C10880,160,10720,160,10560,160C10400,160,10240,160,10080,160C9920,160,9760,160,9600,160C9440,160,9280,160,9120,160C8960,160,8800,160,8640,160C8480,160,8320,160,8160,160C8000,160,7840,160,7680,160C7520,160,7360,160,7200,160C7040,160,6880,160,6720,160C6560,160,6400,160,6240,160C6080,160,5920,160,5760,160C5600,160,5440,160,5280,160C5120,160,4960,160,4800,160C4640,160,4480,160,4320,160C4160,160,4000,160,3840,160C3680,160,3520,160,3360,160C3200,160,3040,160,2880,160C2720,160,2560,160,2400,160C2240,160,2080,160,1920,160C1760,160,1600,160,1440,160C1280,160,1120,160,960,160C800,160,640,160,480,160C320,160,160,160,80,160L0,160Z"/></svg>